<svg width="44" height="44" viewBox="0 0 44 44" fill="none" xmlns="http://www.w3.org/2000/svg">
<g id="var=mail">
<g clip-path="url(#clip0_5418_13921)">
<circle id="Ellipse 24" cx="22" cy="22" r="22" fill="#FDFDFD"/>
<path id="Vector" d="M34.6649 12.7346C33.1065 10.9131 31.0868 10 28.5963 10H28.2103C27.3017 10.0481 26.426 10.2739 25.5833 10.6824C24.7358 11.0909 24.0673 11.6821 23.5683 12.451H23.5024V10.5335H17.5986V29.959H-4V35.9856H17.5986V36H23.5024V25.9316C24.0908 26.6189 24.797 27.1283 25.6303 27.4743C26.4636 27.8155 27.3111 28.0174 28.1773 28.0847H28.6623C31.1292 28.0847 33.1348 27.2004 34.6837 25.4366C36.2279 23.668 37 21.563 37 19.112C37 16.661 36.2232 14.556 34.6649 12.7346ZM29.9146 21.7889C29.2507 22.5194 28.3186 22.8847 27.1039 22.8847C25.8893 22.8847 24.9854 22.5194 24.3168 21.7937C23.6436 21.0632 23.3093 20.1597 23.3093 19.0784C23.3093 17.997 23.6436 17.1416 24.3168 16.3774C24.9854 15.6181 25.9175 15.224 27.1039 15.2C28.3186 15.2 29.2507 15.5845 29.9146 16.3486C30.5737 17.1128 30.9032 18.0163 30.9032 19.0591C30.9032 20.102 30.5737 21.0584 29.9146 21.7889Z" fill="#F79400"/>
</g>
</g>
<defs>
<clipPath id="clip0_5418_13921">
<rect width="44" height="44" rx="22" fill="white"/>
</clipPath>
</defs>
</svg>
