<svg xmlns="http://www.w3.org/2000/svg" width="120" height="120" fill="none"><path fill="#D9D9D9" d="M0 8.033C0 3.597 3.466 0 7.742 0h104.516C116.534 0 120 3.597 120 8.033v103.934c0 4.436-3.466 8.033-7.742 8.033H7.742C3.466 120 0 116.403 0 111.967V8.033Z"/><path fill="#fff" fill-rule="evenodd" d="M59.72 75.035c14.907 0 26.991-11.785 26.991-26.321 0-14.537-12.084-26.322-26.99-26.322-14.906 0-26.99 11.785-26.99 26.322 0 14.536 12.084 26.32 26.99 26.32Zm29.6 14.58c7.851 8.058 12.261 18.988 12.261 30.385h-83.72c0-11.397 4.41-22.327 12.26-30.385 7.85-8.059 18.498-12.586 29.6-12.586s21.75 4.527 29.6 12.586Z" clip-rule="evenodd"/></svg>