<svg width="107" height="38" viewBox="0 0 107 38" fill="none" xmlns="http://www.w3.org/2000/svg">
  <path
    d="M0.825 19.2C0.825 17.4667 1.2 15.925 1.95 14.575C2.7 13.2083 3.74167 12.15 5.075 11.4C6.425 10.6333 7.95 10.25 9.65 10.25C11.7333 10.25 13.5167 10.8 15 11.9C16.4833 13 17.475 14.5 17.975 16.4H13.275C12.925 15.6667 12.425 15.1083 11.775 14.725C11.1417 14.3417 10.4167 14.15 9.6 14.15C8.28333 14.15 7.21667 14.6083 6.4 15.525C5.58333 16.4417 5.175 17.6667 5.175 19.2C5.175 20.7333 5.58333 21.9583 6.4 22.875C7.21667 23.7917 8.28333 24.25 9.6 24.25C10.4167 24.25 11.1417 24.0583 11.775 23.675C12.425 23.2917 12.925 22.7333 13.275 22H17.975C17.475 23.9 16.4833 25.4 15 26.5C13.5167 27.5833 11.7333 28.125 9.65 28.125C7.95 28.125 6.425 27.75 5.075 27C3.74167 26.2333 2.7 25.175 1.95 23.825C1.2 22.475 0.825 20.9333 0.825 19.2ZM29.168 13.9C30.768 13.9 32.0513 14.4333 33.018 15.5C33.9846 16.55 34.468 18 34.468 19.85V28H30.218V20.425C30.218 19.4917 29.9763 18.7667 29.493 18.25C29.0096 17.7333 28.3596 17.475 27.543 17.475C26.7263 17.475 26.0763 17.7333 25.593 18.25C25.1096 18.7667 24.868 19.4917 24.868 20.425V28H20.593V9.5H24.868V15.925C25.3013 15.3083 25.893 14.8167 26.643 14.45C27.393 14.0833 28.2346 13.9 29.168 13.9ZM36.5887 21C36.5887 19.5667 36.8553 18.3083 37.3887 17.225C37.9387 16.1417 38.6803 15.3083 39.6137 14.725C40.547 14.1417 41.5887 13.85 42.7387 13.85C43.722 13.85 44.5803 14.05 45.3137 14.45C46.0637 14.85 46.6387 15.375 47.0387 16.025V14.05H51.3137V28H47.0387V26.025C46.622 26.675 46.0387 27.2 45.2887 27.6C44.5553 28 43.697 28.2 42.7137 28.2C41.5803 28.2 40.547 27.9083 39.6137 27.325C38.6803 26.725 37.9387 25.8833 37.3887 24.8C36.8553 23.7 36.5887 22.4333 36.5887 21ZM47.0387 21.025C47.0387 19.9583 46.7387 19.1167 46.1387 18.5C45.5553 17.8833 44.8387 17.575 43.9887 17.575C43.1387 17.575 42.4137 17.8833 41.8137 18.5C41.2303 19.1 40.9387 19.9333 40.9387 21C40.9387 22.0667 41.2303 22.9167 41.8137 23.55C42.4137 24.1667 43.1387 24.475 43.9887 24.475C44.8387 24.475 45.5553 24.1667 46.1387 23.55C46.7387 22.9333 47.0387 22.0917 47.0387 21.025ZM58.6814 16.025C59.0981 15.375 59.6731 14.85 60.4064 14.45C61.1398 14.05 61.9981 13.85 62.9814 13.85C64.1314 13.85 65.1731 14.1417 66.1064 14.725C67.0398 15.3083 67.7731 16.1417 68.3064 17.225C68.8564 18.3083 69.1314 19.5667 69.1314 21C69.1314 22.4333 68.8564 23.7 68.3064 24.8C67.7731 25.8833 67.0398 26.725 66.1064 27.325C65.1731 27.9083 64.1314 28.2 62.9814 28.2C62.0148 28.2 61.1564 28 60.4064 27.6C59.6731 27.2 59.0981 26.6833 58.6814 26.05V34.65H54.4064V14.05H58.6814V16.025ZM64.7814 21C64.7814 19.9333 64.4814 19.1 63.8814 18.5C63.2981 17.8833 62.5731 17.575 61.7064 17.575C60.8564 17.575 60.1314 17.8833 59.5314 18.5C58.9481 19.1167 58.6564 19.9583 58.6564 21.025C58.6564 22.0917 58.9481 22.9333 59.5314 23.55C60.1314 24.1667 60.8564 24.475 61.7064 24.475C62.5564 24.475 63.2814 24.1667 63.8814 23.55C64.4814 22.9167 64.7814 22.0667 64.7814 21ZM79.1492 24.375V28H76.9742C75.4242 28 74.2159 27.625 73.3492 26.875C72.4826 26.1083 72.0492 24.8667 72.0492 23.15V17.6H70.3492V14.05H72.0492V10.65H76.3242V14.05H79.1242V17.6H76.3242V23.2C76.3242 23.6167 76.4242 23.9167 76.6242 24.1C76.8242 24.2833 77.1576 24.375 77.6242 24.375H79.1492ZM94.6805 20.8C94.6805 21.2 94.6555 21.6167 94.6055 22.05H84.9305C84.9971 22.9167 85.2721 23.5833 85.7555 24.05C86.2555 24.5 86.8638 24.725 87.5805 24.725C88.6471 24.725 89.3888 24.275 89.8055 23.375H94.3555C94.1221 24.2917 93.6971 25.1167 93.0805 25.85C92.4805 26.5833 91.7221 27.1583 90.8055 27.575C89.8888 27.9917 88.8638 28.2 87.7305 28.2C86.3638 28.2 85.1471 27.9083 84.0805 27.325C83.0138 26.7417 82.1805 25.9083 81.5805 24.825C80.9805 23.7417 80.6805 22.475 80.6805 21.025C80.6805 19.575 80.9721 18.3083 81.5555 17.225C82.1555 16.1417 82.9888 15.3083 84.0555 14.725C85.1221 14.1417 86.3471 13.85 87.7305 13.85C89.0805 13.85 90.2805 14.1333 91.3305 14.7C92.3805 15.2667 93.1971 16.075 93.7805 17.125C94.3805 18.175 94.6805 19.4 94.6805 20.8ZM90.3055 19.675C90.3055 18.9417 90.0555 18.3583 89.5555 17.925C89.0555 17.4917 88.4305 17.275 87.6805 17.275C86.9638 17.275 86.3555 17.4833 85.8555 17.9C85.3721 18.3167 85.0721 18.9083 84.9555 19.675H90.3055ZM101.211 16.375C101.711 15.6083 102.336 15.0083 103.086 14.575C103.836 14.125 104.669 13.9 105.586 13.9V18.425H104.411C103.344 18.425 102.544 18.6583 102.011 19.125C101.477 19.575 101.211 20.375 101.211 21.525V28H96.9357V14.05H101.211V16.375Z"
    fill="#1C1C1E" />
</svg>