<svg width="280" height="74" viewBox="0 0 280 74" fill="none" xmlns="http://www.w3.org/2000/svg">
<g clip-path="url(#clip0_5296_1221)">
<path d="M56.856 10.2741V23.5381C55.7156 22.0306 54.2778 20.8837 52.5259 20.0972C50.7823 19.3107 48.956 18.9092 47.0554 18.9092C43.6425 18.9092 40.8742 20.048 38.767 22.3256C36.6598 24.6032 35.6103 27.3969 35.6103 30.7067C35.6103 34.0166 36.6846 36.8267 38.8249 39.0059C40.9734 41.1934 43.7665 42.283 47.2289 42.283C49.0552 42.283 50.8153 41.8816 52.5259 41.0705C54.2364 40.2594 55.6743 39.1616 56.856 37.7689V50.9837C55.8313 51.3196 54.8645 51.6145 53.9555 51.8603C53.0465 52.1061 52.154 52.3191 51.2781 52.5075C50.5922 52.655 49.8981 52.7697 49.1957 52.8434C48.4933 52.9172 47.7661 52.9581 47.0058 52.9581C44.0061 52.9581 41.1304 52.4256 38.3786 51.3524C35.6269 50.2791 33.1313 48.7471 30.8918 46.7481C28.5367 44.6425 26.8014 42.2257 25.6775 39.4893C24.5537 36.7611 24 33.8118 24 30.6494C24 27.7492 24.5371 24.9472 25.6197 22.2355C26.7022 19.5237 28.264 17.1396 30.3216 15.0668C32.371 12.9941 34.784 11.3473 37.5523 10.1266C40.3206 8.90591 43.188 8.25868 46.1547 8.17676H46.667C48.4519 8.17676 50.1873 8.36519 51.8813 8.74206C53.5671 9.11892 55.2281 9.64325 56.8643 10.3232V10.2659L56.856 10.2741Z" fill="black"/>
<path d="M73.8872 4.96484V26.5281H74.0029C75.2176 24.9878 76.5729 23.8409 78.0768 23.0871C79.5725 22.3334 81.3327 21.9565 83.3407 21.9565C87.0593 21.9565 89.8194 23.0707 91.6291 25.291C93.4305 27.5112 94.3313 30.4688 94.3313 34.1555V51.8272H83.9688V36.6952C83.9688 35.0731 83.6961 33.582 83.1424 32.2056C82.5887 30.8292 81.3079 30.1411 79.2998 30.1411C77.2918 30.1411 75.9366 30.8292 75.1432 32.2056C74.3499 33.582 73.9285 35.0731 73.8872 36.6952V51.8272H63.5247V4.96484H73.8872Z" fill="black"/>
<path d="M133.112 51.8271H122.75V48.6073H122.634C121.799 49.9591 120.659 50.9668 119.221 51.6305C117.775 52.2859 116.279 52.6545 114.726 52.7283C114.577 52.7692 114.42 52.7856 114.271 52.7856H113.817C109.487 52.7856 105.95 51.2536 103.198 48.1813C100.446 45.1172 99.0662 41.5124 99.0662 37.3669C99.0662 33.2214 100.421 29.6248 103.14 26.5525C105.851 23.4885 109.379 21.9482 113.701 21.9482H114.271C114.461 21.9482 114.651 21.9646 114.841 22.0056C116.321 22.1203 117.775 22.489 119.196 23.1034C120.618 23.7261 121.808 24.6027 122.758 25.7251V22.8494H133.12V51.8107L133.112 51.8271ZM111.528 32.8282C110.354 34.1226 109.759 35.6629 109.759 37.4325C109.759 39.2021 110.346 40.8243 111.528 42.0614C112.701 43.3067 114.337 43.9211 116.428 43.9211C118.519 43.9211 120.196 43.2985 121.353 42.0532C122.51 40.8079 123.088 39.2595 123.088 37.3997C123.088 35.54 122.51 34.0817 121.353 32.779C120.196 31.4764 118.552 30.821 116.428 30.821C114.337 30.8619 112.709 31.5255 111.528 32.8282Z" fill="black"/>
<path d="M190.172 51.827H179.81V31.3288H176.447V22.8575H179.81V14.165H190.172V22.8575H196.039V31.3288H190.172V51.827Z" fill="black"/>
<path d="M229.35 37.9896V39.0628H207.542C207.542 41.1684 208.096 42.7823 209.195 43.8883C210.294 45.0025 211.906 45.5515 214.038 45.5515C215.137 45.5515 216.095 45.3466 216.913 44.9288C217.731 44.5192 218.426 43.8392 218.996 42.897H228.962C228.127 46.338 226.276 48.8449 223.409 50.4179C220.541 51.9909 217.434 52.7774 214.095 52.7774C209.278 52.7774 205.245 51.4666 202.022 48.8531C198.791 46.2396 197.18 42.43 197.18 37.4161C197.18 32.4021 198.692 28.8137 201.708 26.0692C204.725 23.3246 208.608 21.9482 213.352 21.9482C218.442 21.9482 222.376 23.3984 225.169 26.2986C227.962 29.1988 229.358 33.1149 229.358 38.0387V37.9814L229.35 37.9896ZM219.723 33.1313C219.459 31.7795 218.764 30.6817 217.641 29.8542C216.517 29.0267 215.261 28.6089 213.856 28.6089C212.335 28.6089 211.005 28.994 209.873 29.7559C208.732 30.5178 208.013 31.6402 207.708 33.1313H219.723Z" fill="black"/>
<path d="M244.439 27.6011H244.555C245.538 25.8724 246.86 24.5862 248.513 23.7587C250.166 22.9312 251.992 22.5134 254.008 22.5134L256 22.4561V32.3365C255.851 32.3037 255.702 32.2464 255.57 32.1644C255.438 32.0907 255.297 32.0333 255.14 31.9924C254.57 31.763 254 31.6155 253.43 31.5418C252.86 31.468 252.256 31.4271 251.604 31.4271C248.72 31.4271 246.803 32.2627 245.852 33.9422C244.902 35.6136 244.431 37.6945 244.431 40.1769V51.8106H234.068V22.8657H244.431V27.6093L244.439 27.6011Z" fill="black"/>
<path d="M175.739 26.133C172.438 22.3855 168.16 20.5068 162.884 20.5068H162.066C160.141 20.6057 158.286 21.0704 156.501 21.9109C154.706 22.7514 153.289 23.9676 152.232 25.5496H152.093V21.6044H139.586V61.5707H48.0713V73.97H139.586V73.9996H152.093V53.2848C153.339 54.6987 154.835 55.7468 156.601 56.4587C158.366 57.1608 160.161 57.576 161.996 57.7145H163.023C168.249 57.7145 172.498 55.8951 175.779 52.2663C179.05 48.6276 180.686 44.2968 180.686 39.254C180.686 34.2113 179.04 29.8804 175.739 26.133ZM165.676 44.7615C164.27 46.2645 162.295 47.0159 159.722 47.0159C157.149 47.0159 155.234 46.2645 153.818 44.7714C152.392 43.2685 151.684 41.4096 151.684 39.1848C151.684 36.9601 152.392 35.2 153.818 33.6279C155.234 32.0656 157.209 31.2548 159.722 31.2054C162.295 31.2054 164.27 31.9964 165.676 33.5686C167.073 35.1407 167.771 36.9996 167.771 39.1453C167.771 41.2909 167.073 43.2586 165.676 44.7615Z" fill="#FF9427"/>
</g>
<defs>
<clipPath id="clip0_5296_1221">
<rect width="280" height="74" fill="white"/>
</clipPath>
</defs>
</svg>
